<svg height='100px' width='100px'  fill="#f5d327" xmlns="http://www.w3.org/2000/svg" viewBox="0 0 48 48" x="0px" y="0px"><title>Premium</title><g><path d="M45.9737,16.1909a.9767.9767,0,0,0,.0187-.1083.9877.9877,0,0,0-.0036-.1622.9711.9711,0,0,0-.0083-.1021.9918.9918,0,0,0-.0583-.186c-.0083-.0208-.01-.0431-.02-.0635l-.0046-.0069-.0032-.0092-5-10a.9808.9808,0,0,0-.09-.13.9888.9888,0,0,0-.0647-.094.98.98,0,0,0-.1311-.11.9974.9974,0,0,0-.08-.066,1.0005,1.0005,0,0,0-.173-.0778c-.0268-.01-.0507-.0266-.0784-.0346A.9962.9962,0,0,0,40,5H8a.9962.9962,0,0,0-.2777.04c-.0277.008-.0516.0243-.0784.0346a1.0005,1.0005,0,0,0-.173.0778.9974.9974,0,0,0-.08.066.98.98,0,0,0-.1311.11.9888.9888,0,0,0-.0647.094.9808.9808,0,0,0-.09.13l-5,10-.0032.0092-.0046.0069c-.01.02-.0116.0427-.02.0635a.9918.9918,0,0,0-.0583.186.9711.9711,0,0,0-.0083.1021.9877.9877,0,0,0-.0036.1622.9767.9767,0,0,0,.0187.1083.8021.8021,0,0,0,.0863.2538c.0134.0267.0209.0555.0368.0812.0124.02.03.035.0438.0539.0111.0155.0168.0336.029.0486l21,25.9995c.0124.0153.032.0213.0452.0358a.98.98,0,0,0,.2534.2.9606.9606,0,0,0,.0928.0483.896.896,0,0,0,.7728,0,.9606.9606,0,0,0,.0928-.0483.98.98,0,0,0,.2534-.2c.0132-.0145.0328-.02.0452-.0358l21-25.9995c.0122-.015.0179-.0331.029-.0486.0136-.0189.0314-.0339.0438-.0539.0159-.0257.0234-.0545.0368-.0812a.8021.8021,0,0,0,.0863-.2538ZM17.3537,17H30.6463L24,38.6Zm.7267-2L24,7.6005,29.92,15Zm25.3014,0H34.08l5.7239-7.155ZM37.9194,7,32,14.3994,26.0806,7Zm-16,0L16,14.3994,10.0806,7ZM8.1957,7.845,13.92,15H4.6182ZM15.2617,17l6.2574,20.3367L5.0933,17ZM26.4809,37.3367,32.7383,17H42.9067Z"></path></g></svg>