<svg height='100px' width='100px'  fill="#009ee3" xmlns="http://www.w3.org/2000/svg" data-name="Home Automation" viewBox="0 0 60 60" x="0px" y="0px"><title>Home Automation - 048 - Roomba Timer</title><path d="M59.47754,45.82422a1.00257,1.00257,0,0,0-1.35645.40137,32.41919,32.41919,0,0,1-9.74707,10.957,1,1,0,0,0,1.15234,1.63477A34.44131,34.44131,0,0,0,59.87891,47.18066,1.00061,1.00061,0,0,0,59.47754,45.82422Z"></path><path d="M56.793,44.4502a.99969.99969,0,0,0-1.78516-.90039A28.21187,28.21187,0,0,1,44.47949,54.95508a1,1,0,0,0,1.03906,1.709A30.21022,30.21022,0,0,0,56.793,44.4502Z"></path><path d="M1.87891,46.22559a1.00026,1.00026,0,1,0-1.75781.95508A34.44131,34.44131,0,0,0,10.47363,58.81738,1,1,0,1,0,11.626,57.18262,32.41919,32.41919,0,0,1,1.87891,46.22559Z"></path><path d="M15.52051,54.95508A28.21187,28.21187,0,0,1,4.99219,43.5498.99969.99969,0,0,0,3.207,44.4502,30.21022,30.21022,0,0,0,14.48145,56.66406a1,1,0,1,0,1.03906-1.709Z"></path><circle cx="30" cy="31" r="3"></circle><path d="M30,18a13.07266,13.07266,0,0,0-11.74707,7.42969A12.81521,12.81521,0,0,0,17,31c0,.30859.00879.6084.03613.9082a12.76312,12.76312,0,0,0,.81836,3.73633,12.959,12.959,0,0,0,3.05566,4.64063,10.89783,10.89783,0,0,0,1.05176.9248,13.64535,13.64535,0,0,0,1.2168.85156c.08984.05664.18066.11035.27148.15625a13.07555,13.07555,0,0,0,13.043.03027c.14746-.07617.23828-.12988.32129-.18262a13.4419,13.4419,0,0,0,1.21777-.85156A10.931,10.931,0,0,0,39.083,40.293a12.98536,12.98536,0,0,0,3.06348-4.65137,12.70371,12.70371,0,0,0,.81543-3.70605C42.99121,31.6084,43,31.30859,43,31a12.82082,12.82082,0,0,0-1.252-5.56934A13.07437,13.07437,0,0,0,30,18Zm6.35449,19.17773a.99964.99964,0,0,1-1.41406,0L32.856,35.09332A4.99606,4.99606,0,1,1,29,26.10107V21a1,1,0,0,1,2,0v5.10107A5.00837,5.00837,0,0,1,35,31a4.95275,4.95275,0,0,1-.77081,2.63837l2.12531,2.12531A.99964.99964,0,0,1,36.35449,37.17773Z"></path><path d="M30,1A29.87871,29.87871,0,0,0,.02051,29.94434a1.95378,1.95378,0,0,0,.55566,1.44238A2.01668,2.01668,0,0,0,2.01953,32l2.001.01758A25.957,25.957,0,0,0,30,57c.55615,0,1.11157-.02014,1.66565-.0553a26.19885,26.19885,0,0,0,4.56189-.69275l.00171-.00073.00085-.00012A26.09613,26.09613,0,0,0,55.96973,32h2.01074a2.01668,2.01668,0,0,0,1.44336-.61328,1.95378,1.95378,0,0,0,.55566-1.44238A29.87871,29.87871,0,0,0,30,1Zm4.60071,53.55341q-.25378.049-.50854.09283c-.297.0506-.59515.09448-.8941.13391-.151.02-.3017.04132-.45306.05847-.34344.0387-.688.068-1.033.0921-.10883.00763-.21729.01892-.32623.02509-.12848.00726-.2572.00616-.3858.01141V53a1,1,0,0,0-2,0v1.96729c-.12836-.00519-.2569-.00421-.38507-.01141-.11224-.00641-.22406-.018-.33624-.02588-.34064-.024-.68085-.05267-1.02-.09088-.15582-.01758-.311-.03955-.46631-.06018-.29321-.03876-.58551-.08185-.87671-.13129q-.26285-.04477-.52429-.09564c-.12158-.02344-.24188-.05176-.363-.07709a4.9991,4.9991,0,0,1,9.94305-.00031C34.84778,54.50049,34.72491,54.52954,34.60071,54.55341ZM44.95605,32.0918a14.64878,14.64878,0,0,1-.94141,4.26367,14.98274,14.98274,0,0,1-3.52441,5.35938A13.007,13.007,0,0,1,39.2627,42.79a15.01765,15.01765,0,0,1-1.38477.96875c-.12891.082-.27832.16895-.42773.24414a14.90356,14.90356,0,0,1-14.957-.03027c-.09277-.04492-.24219-.13184-.37793-.21777a15.21391,15.21391,0,0,1-1.38379-.96875,12.97038,12.97038,0,0,1-1.22852-1.0791,14.95646,14.95646,0,0,1-3.5166-5.34863,14.70716,14.70716,0,0,1-.94434-4.29395C15.01074,31.73145,15,31.37109,15,31a14.80926,14.80926,0,0,1,1.44727-6.43066,15.00216,15.00216,0,0,1,27.10645.001A14.81489,14.81489,0,0,1,45,31C45,31.37109,44.98926,31.73145,44.95605,32.0918Zm8.541-10.01172A1.99641,1.99641,0,0,1,51.8125,23H49.5918a1.98832,1.98832,0,0,1-1.77344-1.09375,20.00034,20.00034,0,0,0-35.627.001A1.98925,1.98925,0,0,1,10.41895,23H8.18748A2.00163,2.00163,0,0,1,6.3623,20.17578l.13965-.30469a26.00053,26.00053,0,0,1,46.99121-.01074l.14258.30957A1.99109,1.99109,0,0,1,53.49707,22.08008Z"></path><path d="M30,7A24.13722,24.13722,0,0,0,8.31348,20.71973l-.13281.28809L10.41895,21a21.99211,21.99211,0,0,1,39.17969-.00488L51.81641,21l-.13477-.291A24.13351,24.13351,0,0,0,30,7Z"></path></svg>