<svg height='100px' width='100px'  fill="#6c614b" xmlns="http://www.w3.org/2000/svg" xmlns:xlink="http://www.w3.org/1999/xlink" version="1.1" x="0px" y="0px" viewBox="0 0 100 100" style="enable-background:new 0 0 100 100;" xml:space="preserve"><style type="text/css">
	.st0{fill:#6c614b;}
	.st1{fill:#6c614b;}
	.st2{stroke:#6c614b;stroke-width:2;stroke-linecap:round;stroke-linejoin:round;stroke-miterlimit:10;}
	.st3{fill:#6c614b;}
	.st4{fill:none;stroke:#6c614b;stroke-miterlimit:10;}
	.st5{fill:#6c614b;}
	.st6{fill:none;stroke:#6c614b;stroke-width:4;stroke-linecap:round;stroke-linejoin:round;stroke-miterlimit:10;}
	.st7{fill:#6c614b;}
	.st8{fill:none;}
	.st9{fill:#6c614b;}
	.st10{fill:none;stroke:#6c614b;stroke-width:5.1;stroke-linecap:round;stroke-linejoin:round;stroke-miterlimit:10;}
	.st11{fill:none;stroke:#6c614b;stroke-width:4;stroke-miterlimit:10;}
	.st12{fill:none;stroke:#6c614b;stroke-width:3.9028;stroke-linecap:round;stroke-linejoin:round;stroke-miterlimit:10;}
	.st13{fill:none;stroke:#6c614b;stroke-width:2.9365;stroke-linecap:round;stroke-linejoin:round;stroke-miterlimit:10;}
	.st14{fill:none;stroke:#6c614b;stroke-width:0.5873;stroke-linecap:round;stroke-linejoin:round;stroke-miterlimit:10;}
	.st15{fill:none;stroke:#6c614b;stroke-width:5.8698;stroke-miterlimit:10;}
	.st16{fill:none;stroke:#6c614b;stroke-width:4.6136;stroke-miterlimit:10;}
	.st17{fill:none;stroke:#6c614b;stroke-width:2.9349;stroke-miterlimit:10;}
	.st18{fill:none;stroke:#6c614b;stroke-width:2.3068;stroke-miterlimit:10;}
	.st19{fill:none;stroke:#6c614b;stroke-width:0.9556;stroke-miterlimit:10;}
	.st20{fill:none;stroke:#6c614b;stroke-width:3.2643;stroke-miterlimit:10;}
	.st21{fill:none;stroke:#6c614b;stroke-width:3;stroke-miterlimit:10;}
	.st22{fill:none;stroke:#6c614b;stroke-width:2;stroke-linecap:round;stroke-linejoin:round;stroke-miterlimit:10;}
	.st23{fill:#6c614b;}
	.st24{fill:none;stroke:#6c614b;stroke-width:2;stroke-linecap:round;stroke-linejoin:round;stroke-miterlimit:10;}
	.st25{fill:#6c614b;}
	.st26{fill:#6c614b;stroke:#6c614b;stroke-width:2.5048;stroke-linecap:round;stroke-linejoin:round;stroke-miterlimit:10;}
	.st27{stroke:#6c614b;stroke-width:2.3956;stroke-miterlimit:10;}
	.st28{fill:none;stroke:#6c614b;stroke-width:3;stroke-linecap:round;stroke-linejoin:round;stroke-miterlimit:10;}
	.st29{fill:none;stroke:#6c614b;stroke-width:3.8305;stroke-linecap:round;stroke-linejoin:round;stroke-miterlimit:10;}
	.st30{fill:none;stroke:#6c614b;stroke-width:0.813;stroke-linecap:round;stroke-linejoin:round;stroke-miterlimit:10;}
	.st31{stroke:#6c614b;stroke-width:0.813;stroke-linecap:round;stroke-linejoin:round;stroke-miterlimit:10;}
	.st32{fill:none;stroke:#6c614b;stroke-width:5.4115;stroke-miterlimit:10;}
	.st33{fill:none;stroke:#6c614b;stroke-width:4;stroke-linecap:round;stroke-linejoin:round;stroke-miterlimit:10;}
	.st34{fill:none;stroke:#6c614b;stroke-width:3;stroke-linecap:round;stroke-linejoin:round;stroke-miterlimit:10;}
	.st35{fill:#6c614b;stroke:#6c614b;stroke-width:1.614;stroke-miterlimit:10;}
	.st36{fill:none;stroke:#6c614b;stroke-width:0.7622;stroke-miterlimit:10;}
	.st37{fill:none;stroke:#6c614b;stroke-width:1.6015;stroke-miterlimit:10;}
	.st38{fill:none;stroke:#6c614b;stroke-linecap:round;stroke-linejoin:round;stroke-miterlimit:10;}
	.st39{fill:none;stroke:#6c614b;stroke-width:2.5048;stroke-linecap:round;stroke-linejoin:round;stroke-miterlimit:10;}
	.st40{fill:none;stroke:#6c614b;stroke-width:2.0699;stroke-linecap:round;stroke-linejoin:round;stroke-miterlimit:10;}
	.st41{fill:#6c614b;stroke:#6c614b;stroke-width:1.6404;stroke-linecap:round;stroke-linejoin:round;stroke-miterlimit:10;}
	.st42{fill:#6c614b;stroke:#6c614b;stroke-width:2.5048;stroke-miterlimit:10;}
	.st43{clip-path:url(#SVGID_2_);}
	.st44{fill:#6c614b;stroke:#6c614b;stroke-linecap:round;stroke-linejoin:round;stroke-miterlimit:10;}
	.st45{clip-path:url(#SVGID_4_);}
	.st46{clip-path:url(#SVGID_6_);}
	.st47{fill:none;stroke:#6c614b;stroke-width:1.6154;stroke-linecap:round;stroke-linejoin:round;stroke-miterlimit:10;}
	.st48{fill:none;stroke:#6c614b;stroke-width:0.6567;stroke-linecap:round;stroke-linejoin:round;stroke-miterlimit:10;}
	.st49{stroke:#6c614b;stroke-width:0.6567;stroke-linecap:round;stroke-linejoin:round;stroke-miterlimit:10;}
	.st50{fill:none;stroke:#6c614b;stroke-width:1.288;stroke-linecap:round;stroke-linejoin:round;stroke-miterlimit:10;}
	.st51{fill:none;stroke:#6c614b;stroke-width:0.6704;stroke-linecap:round;stroke-linejoin:round;stroke-miterlimit:10;}
	.st52{fill:none;stroke:#6c614b;stroke-width:3.6712;stroke-linecap:round;stroke-linejoin:round;stroke-miterlimit:10;}
</style><g><path d="M66.5,48.3c-3.7-0.4-4.3-1.1-3.8-1.8c0.6-0.7,13.7-7,9.2-12.2c-1.8-1.6-5.9,3.3-8.2,4.8c-2.3,1.5-3.2,3.2-4.9,2.6   c-1.8-0.5-1.4-3.3-2.8-4.5c-1.4-1.3-3.9-1.9-6.1,1.5c-2.1,3.4-3,1.1-4-0.1c-1-1.3-1.9-8.5-5-8.2c-3.2,0.3-0.3,5.6-0.3,6.9   s0.8,5.3-2.8,5.8c-3.5,0.5-6.9-1.6-9.1-0.9C26.7,43,26.5,45,27.9,46c1.4,1,8.6,1.5,10.3,2.5c5.3,3.3-7.7,8.9-5.5,12.5   c2.2,3.6,10.2-3.4,12.2-3.1c2,0.4-0.6,7.3-0.3,9.3c0.4,2,2.3,5.3,7.6,4.7c5.3-0.6,0-7.2,0-8.6c0-1.4-0.6-4.5,2.3-2.8   s2.9,7.6,6.6,12.3c3.8,4.7,14.1,7.5,10.5,0.4c-3.5-7.1-8.4-6.9-9.8-9.4c-1.4-2.5-2.3-7.4,0.1-6c2.4,1.4,0.9,3.4,3.9,5   s6.8,0.9,5.3-2.4c-1.5-3.3-3.4-2.8-5.3-4c-1.9-1.3-5.7-5.2-2.5-5.3c3.2-0.1,17.2,10.2,18.4,6.4C83,54,73.8,49,66.5,48.3z"></path><path d="M54.2,31.4c0.2,0.3,0.6,0.4,0.8,0.1c1-1.3,3.3-4.2,3.4-5.6c0.2-1.7-1-3.3-2.7-3.5c-1.7-0.2-3.3,1-3.5,2.7   C52,26.5,53.5,29.9,54.2,31.4z"></path><path d="M27,52.8c-1.5-0.6-5.1-1.7-6.4-1.5c-1.7,0.4-2.8,2-2.4,3.7c0.4,1.7,2,2.8,3.7,2.4c1.3-0.3,4.1-2.7,5.3-3.9   C27.4,53.3,27.3,52.9,27,52.8z"></path><path d="M37.4,66.5c-1.6,0.6-5,1.9-5.8,2.9c-1.1,1.4-0.9,3.3,0.5,4.4c1.4,1.1,3.3,0.9,4.4-0.5c0.8-1,1.4-4.7,1.6-6.3   C38.1,66.6,37.7,66.3,37.4,66.5z"></path></g></svg>